<svg xmlns="http://www.w3.org/2000/svg">
  <symbol id="gauge" viewBox="0 0 24 24"><path d="M4 18a8 8 0 1 1 16 0"/><path d="M12 18l4-5"/><path d="M7 18h10"/></symbol>
  <symbol id="browsers" viewBox="0 0 24 24"><rect x="3" y="5" width="18" height="14" rx="2"/><path d="M3 9h18M7 7h.01M10 7h.01"/></symbol>
  <symbol id="device-mobile" viewBox="0 0 24 24"><rect x="7" y="2" width="10" height="20" rx="2"/><path d="M10 5h4M11 18h2"/></symbol>
  <symbol id="brain" viewBox="0 0 24 24"><path d="M9 4a3 3 0 0 0-5 2 3 3 0 0 0 0 5 3 3 0 0 0 2 5 3 3 0 0 0 3 4h3V5a3 3 0 0 0-3-1Z"/><path d="M15 4a3 3 0 0 1 5 2 3 3 0 0 1 0 5 3 3 0 0 1-2 5 3 3 0 0 1-3 4h-3V5a3 3 0 0 1 3-1ZM8 9h4M12 14h4"/></symbol>
  <symbol id="check-square" viewBox="0 0 24 24"><rect x="3" y="3" width="18" height="18" rx="3"/><path d="m7 12 3 3 7-7"/></symbol>
  <symbol id="flow-arrow" viewBox="0 0 24 24"><path d="M5 5h4a4 4 0 0 1 4 4v10M13 15l4 4-4 4M5 19h3"/></symbol>
  <symbol id="heart" viewBox="0 0 24 24"><path d="M20.8 4.6a5.5 5.5 0 0 0-7.8 0L12 5.7l-1.1-1.1a5.5 5.5 0 0 0-7.8 7.8l1.1 1.1L12 21l7.8-7.5 1.1-1.1a5.5 5.5 0 0 0-.1-7.8Z"/></symbol>
  <symbol id="github" viewBox="0 0 24 24"><path d="M12 2a10 10 0 0 0-3.2 19.5c.5.1.7-.2.7-.5v-2c-2.8.6-3.4-1.2-3.4-1.2-.5-1.2-1.1-1.5-1.1-1.5-.9-.6.1-.6.1-.6 1 0 1.6 1 1.6 1 .9 1.6 2.4 1.1 3 .9.1-.7.4-1.1.7-1.4-2.3-.3-4.6-1.1-4.6-5A3.9 3.9 0 0 1 6.8 8c-.1-.3-.5-1.3.1-2.7 0 0 .8-.3 2.8 1a9.6 9.6 0 0 1 5.1 0c2-1.3 2.8-1 2.8-1 .6 1.4.2 2.4.1 2.7a3.9 3.9 0 0 1 1 2.7c0 3.9-2.4 4.7-4.7 5 .4.3.7 1 .7 2V21c0 .3.2.6.7.5A10 10 0 0 0 12 2Z"/></symbol>
  <symbol id="certificate" viewBox="0 0 24 24"><circle cx="12" cy="9" r="6"/><path d="m8.5 14-1 8 4.5-2 4.5 2-1-8M9 9l2 2 4-4"/></symbol>
</svg>
