<svg xmlns="http://www.w3.org/2000/svg">
  <symbol id="gauge" viewBox="0 0 24 24"><path d="M4 18a8 8 0 1 1 16 0"/><path d="M12 18l4-5"/><path d="M7 18h10"/></symbol>
  <symbol id="browsers" viewBox="0 0 24 24"><rect x="3" y="5" width="18" height="14" rx="2"/><path d="M3 9h18M7 7h.01M10 7h.01"/></symbol>
  <symbol id="device-mobile" viewBox="0 0 24 24"><rect x="7" y="2" width="10" height="20" rx="2"/><path d="M10 5h4M11 18h2"/></symbol>
  <symbol id="brain" viewBox="0 0 24 24"><path d="M9 4a3 3 0 0 0-5 2 3 3 0 0 0 0 5 3 3 0 0 0 2 5 3 3 0 0 0 3 4h3V5a3 3 0 0 0-3-1Z"/><path d="M15 4a3 3 0 0 1 5 2 3 3 0 0 1 0 5 3 3 0 0 1-2 5 3 3 0 0 1-3 4h-3V5a3 3 0 0 1 3-1ZM8 9h4M12 14h4"/></symbol>
  <symbol id="check-square" viewBox="0 0 24 24"><rect x="3" y="3" width="18" height="18" rx="3"/><path d="m7 12 3 3 7-7"/></symbol>
  <symbol id="flow-arrow" viewBox="0 0 24 24"><path d="M5 5h4a4 4 0 0 1 4 4v10M13 15l4 4-4 4M5 19h3"/></symbol>
  <symbol id="heart" viewBox="0 0 24 24"><path d="M20.8 4.6a5.5 5.5 0 0 0-7.8 0L12 5.7l-1.1-1.1a5.5 5.5 0 0 0-7.8 7.8l1.1 1.1L12 21l7.8-7.5 1.1-1.1a5.5 5.5 0 0 0-.1-7.8Z"/></symbol>
  <symbol id="github" viewBox="0 0 24 24"><path d="M12 2a10 10 0 0 0-3.2 19.5c.5.1.7-.2.7-.5v-2c-2.8.6-3.4-1.2-3.4-1.2-.5-1.2-1.1-1.5-1.1-1.5-.9-.6.1-.6.1-.6 1 0 1.6 1 1.6 1 .9 1.6 2.4 1.1 3 .9.1-.7.4-1.1.7-1.4-2.3-.3-4.6-1.1-4.6-5A3.9 3.9 0 0 1 6.8 8c-.1-.3-.5-1.3.1-2.7 0 0 .8-.3 2.8 1a9.6 9.6 0 0 1 5.1 0c2-1.3 2.8-1 2.8-1 .6 1.4.2 2.4.1 2.7a3.9 3.9 0 0 1 1 2.7c0 3.9-2.4 4.7-4.7 5 .4.3.7 1 .7 2V21c0 .3.2.6.7.5A10 10 0 0 0 12 2Z"/></symbol>
  <symbol id="certificate" viewBox="0 0 24 24"><circle cx="12" cy="9" r="6"/><path d="m8.5 14-1 8 4.5-2 4.5 2-1-8M9 9l2 2 4-4"/></symbol>
  <symbol id="brand-java" viewBox="0 0 24 24"><path fill="none" stroke="#F59E0B" stroke-linecap="round" stroke-width="1.7" d="M8 9h9v5.5a4 4 0 0 1-4 4h-1a4 4 0 0 1-4-4V9Zm9 1h1.4a2.1 2.1 0 0 1 0 4.2H17M10.5 6.8c-2-2.5 3-2.7 1-5M14.5 6.8c-2-2.5 3-2.7 1-5M6 21h13"/></symbol>
  <symbol id="brand-playwright" viewBox="0 0 24 24"><path fill="#45BA4B" d="M3 4.5c3.5-.8 6.8-.2 9.4 1.8-.2 5.1-2.5 9-6.1 10.2C4 14.3 2.8 10.4 3 4.5Zm2.2 4.3c.7.4 1.4.4 2.1 0-.2 1.2-1.8 1.2-2.1 0Zm.4 4.1c1.5 1.2 3.2 1.1 4.7-.3-1.1 2.5-3.5 2.7-4.7.3Z"/><path fill="#D65348" d="M11.3 5.5c2.8-1.7 6.1-2 9.5-.7.2 5.8-1.3 9.6-4 11.6-3.6-1.5-5.6-5.5-5.5-10.9Zm2.4 3.2c.7.4 1.5.4 2.2-.1-.3 1.3-1.9 1.4-2.2.1Zm3.9-.7c.7.5 1.4.5 2.1.1-.3 1.2-1.8 1.1-2.1-.1Zm-3.4 4.3c1.3-1.4 3.2-1.5 4.8-.2-1.4-.3-3.1.4-4.8.2Z"/></symbol>
  <symbol id="brand-maestro" viewBox="0 0 24 24"><path fill="#8B5CF6" d="M3 5h4.2l4.8 6.3L16.8 5H21v14h-4V11l-5 6-5-6v8H3V5Z"/></symbol>
  <symbol id="api" viewBox="0 0 24 24"><path d="m8 5-5 7 5 7M16 5l5 7-5 7M14 3l-4 18"/></symbol>
  <symbol id="database" viewBox="0 0 24 24"><ellipse cx="12" cy="5" rx="8" ry="3"/><path d="M4 5v7c0 1.7 3.6 3 8 3s8-1.3 8-3V5M4 12v7c0 1.7 3.6 3 8 3s8-1.3 8-3v-7"/></symbol>
  <symbol id="database-nodes" viewBox="0 0 24 24"><ellipse cx="8" cy="6" rx="5" ry="2.5"/><path d="M3 6v7c0 1.4 2.2 2.5 5 2.5 1 0 2-.2 2.8-.5M13 8.5c0 1.4-2.2 2.5-5 2.5S3 9.9 3 8.5"/><circle cx="17" cy="16" r="4"/><path d="M13.5 14 11 12M20.5 14l2-2M17 12V9"/></symbol>
  <symbol id="chart" viewBox="0 0 24 24"><path d="M4 20V10M10 20V4M16 20v-7M22 20H2"/><path d="m3 7 5-3 5 4 7-6"/></symbol>
  <symbol id="inspect" viewBox="0 0 24 24"><rect x="3" y="3" width="13" height="13" rx="3"/><path d="m14 14 7 7M7 8h5M7 11h3"/></symbol>
  <symbol id="device-stack" viewBox="0 0 24 24"><rect x="3" y="5" width="12" height="15" rx="2"/><rect x="11" y="2" width="10" height="16" rx="2"/><path d="M14 5h4M7 17h4M15 15h2"/></symbol>
  <symbol id="git-branch" viewBox="0 0 24 24"><circle cx="6" cy="5" r="2"/><circle cx="18" cy="7" r="2"/><circle cx="6" cy="19" r="2"/><path d="M6 7v10M8 10h5a5 5 0 0 0 5-5"/></symbol>
  <symbol id="shield-check" viewBox="0 0 24 24"><path d="M12 2 4 5v6c0 5.2 3.4 9.3 8 11 4.6-1.7 8-5.8 8-11V5l-8-3Z"/><path d="m8 12 2.5 2.5L16 9"/></symbol>
  <symbol id="cycle" viewBox="0 0 24 24"><path d="M20 7h-6V1M4 17h6v6"/><path d="M18.5 17a8 8 0 0 1-13-2M5.5 7a8 8 0 0 1 13 2"/></symbol>
  <symbol id="checklist" viewBox="0 0 24 24"><path d="m3 6 2 2 4-4M3 13l2 2 4-4M3 20l2 2 4-4M12 6h9M12 13h9M12 20h9"/></symbol>
  <symbol id="unit-test" viewBox="0 0 24 24"><rect x="3" y="3" width="8" height="8" rx="2"/><rect x="13" y="13" width="8" height="8" rx="2"/><path d="m5 7 1.5 1.5L9 5.5M15 17l1.5 1.5L19 15.5"/></symbol>
  <symbol id="layers" viewBox="0 0 24 24"><path d="m12 2 9 5-9 5-9-5 9-5Z"/><path d="m3 12 9 5 9-5M3 17l9 5 9-5"/></symbol>
  <symbol id="route" viewBox="0 0 24 24"><circle cx="5" cy="5" r="2"/><circle cx="19" cy="19" r="2"/><path d="M7 5h4a3 3 0 0 1 0 6H9a3 3 0 0 0 0 6h8"/></symbol>
  <symbol id="repeat" viewBox="0 0 24 24"><path d="m17 2 4 4-4 4M3 11V9a3 3 0 0 1 3-3h15M7 22l-4-4 4-4M21 13v2a3 3 0 0 1-3 3H3"/></symbol>
  <symbol id="search" viewBox="0 0 24 24"><circle cx="10.5" cy="10.5" r="7.5"/><path d="m16 16 5 5M7 9c1-2 3-3 5-2"/></symbol>
  <symbol id="contract" viewBox="0 0 24 24"><path d="M6 2h9l4 4v16H6V2Z"/><path d="M14 2v5h5M9 12h7M9 16h7M9 8h2"/></symbol>
</svg>
